<svg width="24" height="20" viewBox="0 0 24 20" fill="none" xmlns="http://www.w3.org/2000/svg">
<g opacity="0.4">
<path fill-rule="evenodd" clip-rule="evenodd" d="M15.1799 2.40997C15.1799 1.07999 16.2599 0 17.5899 0C18.9199 0 19.9999 1.07999 19.9999 2.40997C19.9999 3.73995 18.9199 4.81994 17.5899 4.81994C16.2599 4.81994 15.1799 3.73995 15.1799 2.40997ZM11.3299 12.7591L14.2198 9.03019L14.1798 9.05019C14.3398 8.83019 14.3698 8.5502 14.2598 8.3002C14.1508 8.0502 13.9098 7.8802 13.6508 7.8602C13.3798 7.8302 13.1108 7.9502 12.9498 8.1702L10.5309 11.3002L7.75991 9.12019C7.58991 8.99019 7.38991 8.93919 7.18991 8.96019C6.99091 8.99019 6.81092 9.09919 6.68992 9.25919L3.73095 13.1101L3.66996 13.2001C3.49996 13.5191 3.57996 13.9291 3.87995 14.1501C4.01995 14.2401 4.16995 14.3001 4.33995 14.3001C4.57094 14.3101 4.78994 14.1891 4.92994 14.0001L7.43991 10.7692L10.2899 12.9101L10.3799 12.9691C10.6999 13.1391 11.0999 13.0601 11.3299 12.7591ZM13.4498 1.78028C13.4098 2.03028 13.3898 2.28027 13.3898 2.53027C13.3898 4.78024 15.2098 6.59922 17.4498 6.59922C17.6998 6.59922 17.9398 6.57022 18.1898 6.53022V14.5991C18.1898 17.9901 16.1898 20.0001 12.7898 20.0001H5.40093C1.99998 20.0001 0 17.9901 0 14.5991V7.20021C0 3.80025 1.99998 1.78028 5.40093 1.78028H13.4498Z" fill="white"/>
</g>
<g opacity="0.4" filter="url(#filter0_d_8_2620)">
<circle cx="17.4998" cy="2.49997" r="2.49997" fill="white"/>
</g>
<defs>
<filter id="filter0_d_8_2620" x="10.9999" y="0" width="12.9998" height="12.9998" filterUnits="userSpaceOnUse" color-interpolation-filters="sRGB">
<feFlood flood-opacity="0" result="BackgroundImageFix"/>
<feColorMatrix in="SourceAlpha" type="matrix" values="0 0 0 0 0 0 0 0 0 0 0 0 0 0 0 0 0 0 127 0" result="hardAlpha"/>
<feOffset dy="4"/>
<feGaussianBlur stdDeviation="2"/>
<feComposite in2="hardAlpha" operator="out"/>
<feColorMatrix type="matrix" values="0 0 0 0 0 0 0 0 0 0 0 0 0 0 0 0 0 0 0.25 0"/>
<feBlend mode="normal" in2="BackgroundImageFix" result="effect1_dropShadow_8_2620"/>
<feBlend mode="normal" in="SourceGraphic" in2="effect1_dropShadow_8_2620" result="shape"/>
</filter>
</defs>
</svg>
