<svg width="642" height="639" viewBox="0 0 642 639" fill="none" xmlns="http://www.w3.org/2000/svg">
<path d="M137.317 77.3649L169.595 47.4787L170.855 46.5985L177.18 42.1509L208.982 19.786" stroke="#00FFE7" stroke-opacity="0.5" stroke-width="1.08501" stroke-linecap="round" stroke-linejoin="round"/>
<path d="M15.1766 358.9L17.3805 316.489L33.15 276.273L49.6554 238.577L67.8318 203.003L92.2027 172.871L121.724 150.449L136.29 150.626L152.379 147.763L174.385 128.615L177.481 125.912L196.419 90.6587L217.257 48.9059L243.985 13.7745L275.284 0.835636" stroke="#00FFE7" stroke-opacity="0.5" stroke-width="1.08501" stroke-linecap="round" stroke-linejoin="round"/>
<path d="M334.907 618.048L297.971 599.103L263.925 573.653L234.193 552.04L205.964 539.794L176.418 535.621L146.564 533.375" stroke="#00FFE7" stroke-opacity="0.5" stroke-width="1.08501" stroke-linecap="round" stroke-linejoin="round"/>
<path d="M147.187 126.16L167.213 90.1187L190.258 48.7577L190.363 48.5495L218.211 18.3814L221.907 14.3906L224.055 13.696L225.437 13.4268L234.13 10.5777L259.621 2.20882L266.69 0.542757" stroke="#00FFE7" stroke-opacity="0.5" stroke-width="1.08501" stroke-linecap="round" stroke-linejoin="round"/>
<path d="M395.812 251.594L433.739 246.755L484.072 237.232L542.265 225.986L590.912 218.833L625.947 215.084L641.457 215.229" stroke="#00FFE7" stroke-opacity="0.5" stroke-width="1.08501" stroke-linecap="round" stroke-linejoin="round"/>
<path d="M517.88 397.988L517.445 398.817L500.409 431.65L488.071 466.876L481.55 474.328L472.149 505.331L469.328 514.607L458.781 527.174L439.181 537.339L409.06 542.199L369.396 538.846L324.344 525.294L281.006 500.7L246.73 471.791L252.79 434.078L258.757 397.321L264.771 360.798L271.076 323.891L277.764 290.051L283.716 261.171L289.416 230.6L295.466 197.45L301.276 167.974L306.934 140.312L313.228 108.8L320.291 73.5654L306.35 53.7086L290.677 37.0117L274.306 24.6399L258.392 16.9453L243.985 13.7752L231.683 13.5482L203.795 47.3371L202.572 48.8135L202.179 49.5974L180.765 91.2699L161.566 127.451L158.814 129.97L136.291 150.627L133.154 153.775L110.76 176.137L95.0424 211.537L80.5172 247.277L60.715 282.714L39.7879 322.23L32.917 365.55L38.4544 407.241L50.5595 445.203L69.7125 454.679L83.036 489.445L105.662 499.214L139.211 501.478L176.957 498.119L210.744 498.567L240.201 512.479L272.405 539.891L311.884 568.31L353.997 584.557L392.425 589.471L422.875 584.719L443.508 572.959L458.781 527.174L470.23 482.442L481.55 474.328L492.546 435.75L494.196 432.055L508.803 399.522L517.88 397.988ZM517.88 397.988L520.024 395.782L551.501 363.66L551.879 363.273L565.066 364.014L606.397 320.648L629.919 267.964L625.948 215.084L604.452 167.703L565.897 132.603L510.839 118.484L489.132 126.852L461.283 139.195L428.355 156.735L397.589 173.288L377.951 164.32L361.67 169.545L349.206 165.872L338.725 152.745L327.445 132.349L331.912 94.5053L335.001 60.0898L333.856 45.2298L329.412 38.5758L324.655 32.4412L316.852 31.6749L306.43 19.7381L295.661 10.3633L285.091 4.00801L258.392 16.9453L234.65 50.9506L215.187 90.94L197.043 124.783L173.801 146.412L155.83 179.746L149.139 223.34L140.993 261.481L123.031 295.997L101.38 335.685L90.1617 380.386L89.9271 423.877L95.993 463.575L105.662 499.214L120.861 527.32L146.564 533.376L160.554 553.241L182.242 561.585L193.621 572.278L211.302 582.042L230.676 591.139L232.713 592.022L232.941 592.113L233.247 592.251L233.75 592.458L234.478 592.772L235.413 593.191L236.566 595.608L242.871 596.399L243.953 596.877L245.249 597.426L246.895 598.157L249.177 599.133L251.119 599.966L252.482 600.526L257.931 602.786L266.999 606.526L272.173 608.67L272.434 608.766L272.594 608.846L282.971 613.676L295.716 619.584L313.353 627.762L341.979 636.951L367.341 638.054L387.702 632.513L395.964 627.491L404.787 622.13L420.536 612.562L434.04 597.702L437.47 591.08L448.217 570.268L454.905 557.325L460.349 542.297L465.509 530.795L476.268 512.676L489.712 493.05L490.762 491.665L492.811 489.097L512.904 463.724L513.302 463.219L533.498 432.118L553.582 399.732L554.037 398.993L579.116 364.78L579.545 364.194L580.336 363.113L593.625 344.71L597.697 340.141L614.399 321.362L614.506 321.241L631.349 286.778L639.88 269.305L641.457 215.229L623.138 165.489L607.119 150.018L584.432 128.106L565.897 132.603L537.198 140.949L498.972 154.519L453.811 174.083L413.657 191.544L382.747 202.188L359.519 204.779L339.785 201.088L321.807 187.958L301.276 167.974L275.995 148.053L247.976 133.846L220.839 126.732L197.043 124.783L177.482 125.913L161.566 127.451L147.188 126.161L121.724 150.45L106.789 146.097L91.6319 138.34L77.9705 128.926L69.0935 120.879L69.3876 118.221L106.012 102.019L137.317 77.3654L151.767 65.6334L169.596 47.4792L173.446 46.8815L180.564 47.6883L190.363 48.5502L202.572 48.8135L217.258 48.9065L234.65 50.9506L254.396 57.3334L275.264 69.0786L295.496 86.6346L313.228 108.8L327.445 132.349L324.085 162.935L338.071 180.682L352.718 188.474L359.519 204.779L361.151 230.084L367.146 251.146L385.453 268.48L422.228 270.753L463.565 271.3L489.265 308.926L491.33 356.26L475.04 400.883L461.21 443.684L450.898 489.285L439.181 537.339L422.875 584.719L399.026 622.629L369.795 625.106L334.907 618.049L313.353 627.762L288.656 614.847L283.927 612.745L280.889 610.494L279.473 609.629L268.812 603.102L256.47 595.526L230.577 580.864L205.896 570.001L182.242 561.585L176.418 535.622L176.957 498.119L180.86 457.976L184.587 420.51L190.069 383.237L198.125 346.852L207.148 313.06L214.858 280.764L218.959 243.448L223.422 198.869L234.012 160.744L247.976 133.846L261.286 103.541L275.264 69.0786L290.677 37.0117L306.43 19.7381" stroke="#00FFE7" stroke-opacity="0.5" stroke-width="1.08501" stroke-linecap="round" stroke-linejoin="round"/>
<path d="M511.895 430.853L497.068 463.974L480.797 496.798L474.524 502.99L471.086 512.526L465.06 529.244L464.369 532.094L460.349 542.296L460.273 542.439" stroke="#00FFE7" stroke-opacity="0.5" stroke-width="1.08501" stroke-linecap="round" stroke-linejoin="round"/>
<path d="M269.851 608.744L261.457 605.43L253.405 602.243L250.188 600.744L236.566 595.607" stroke="#00FFE7" stroke-opacity="0.5" stroke-width="1.08501" stroke-linecap="round" stroke-linejoin="round"/>
<path d="M378.643 126.53L413.377 128.353L413.619 128.359L422.983 125.641" stroke="#00FFE7" stroke-opacity="0.5" stroke-width="1.08501" stroke-linecap="round" stroke-linejoin="round"/>
<path d="M378.709 126.541L412.967 128.614L413.446 128.348L426.278 124.621L455.816 115.931L472.408 111.018" stroke="#00FFE7" stroke-opacity="0.5" stroke-width="1.08501" stroke-linecap="round" stroke-linejoin="round"/>
<path d="M267.369 608.133L261.037 605.55L257.089 603.961L250.024 600.89L236.566 595.607" stroke="#00FFE7" stroke-opacity="0.5" stroke-width="1.08501" stroke-linecap="round" stroke-linejoin="round"/>
<path d="M246.73 471.791L217.061 457.184L180.86 457.976L136.464 464.009L95.9933 463.575L69.7128 454.679L60.8123 415.525L58.8003 372.695L69.2542 328.715L92.5629 289.689L112.612 255.666L122.799 218.895L131.604 178.193L150.304 150.796L152.38 147.764L173.801 146.412L201.752 150.366L234.012 160.744L266.687 177.283L295.466 197.45L318.962 214.587L340.568 223.923L361.151 230.084L385.726 229.682L420.125 221.191L467.174 205.748L522.323 187.669L569.545 175.102L604.452 167.703L623.138 165.489" stroke="#00FFE7" stroke-opacity="0.5" stroke-width="1.08501" stroke-linecap="round" stroke-linejoin="round"/>
<path d="M288.656 614.847L284.175 612.508L272.698 608.845L272.453 608.752" stroke="#00FFE7" stroke-opacity="0.5" stroke-width="1.08501" stroke-linecap="round" stroke-linejoin="round"/>
<path d="M146.564 533.376L139.211 501.478L136.464 464.009L135.33 425.216L138.46 384.004L148.632 342.198L164.235 304.4L176.727 270.207L182.092 231.37L187.21 186.104L201.752 150.366L220.839 126.732L237.174 94.6476L254.396 57.3333L274.306 24.6397L295.661 10.3631" stroke="#00FFE7" stroke-opacity="0.5" stroke-width="1.08501" stroke-linecap="round" stroke-linejoin="round"/>
<path d="M266.999 606.525L262.876 605.045L250.188 600.744L236.566 595.607" stroke="#00FFE7" stroke-opacity="0.5" stroke-width="1.08501" stroke-linecap="round" stroke-linejoin="round"/>
<path d="M378.808 126.576L409.107 131.015L416.869 128.841L417.815 128.585L433.959 124.065L465.187 115.332L472.409 111.018" stroke="#00FFE7" stroke-opacity="0.5" stroke-width="1.08501" stroke-linecap="round" stroke-linejoin="round"/>
<path d="M341.468 58.9979L342.62 63.567L348.218 86.0546L348.629 87.7214L348.654 89.1141L349.547 129.428L349.205 165.871L352.717 188.474" stroke="#00FFE7" stroke-opacity="0.5" stroke-width="1.08501" stroke-linecap="round" stroke-linejoin="round"/>
<path d="M490.761 491.664L489.711 493.048L483.903 499.77" stroke="#00FFE7" stroke-opacity="0.5" stroke-width="1.08501" stroke-linecap="round" stroke-linejoin="round"/>
<path d="M397.589 173.286L413.657 191.543L420.124 221.189L433.74 246.754L463.565 271.299L511.693 269.975L562.844 267.915L602.668 267.563L629.919 267.963L639.88 269.304" stroke="#00FFE7" stroke-opacity="0.5" stroke-width="1.08501" stroke-linecap="round" stroke-linejoin="round"/>
<path d="M377.95 164.319L397.937 152.987L419.303 139.875L461.282 139.194L498.97 154.518L522.322 187.668L542.264 225.985L562.844 267.916L563.307 316.402L538.357 362.144" stroke="#00FFE7" stroke-opacity="0.5" stroke-width="1.08501" stroke-linecap="round" stroke-linejoin="round"/>
<path d="M337.895 52.1273L342.347 74.5077L341.395 113.937L338.725 152.744L338.071 180.681L339.785 201.088L340.568 223.923L342.272 246.341L350.382 265.367L360.401 293.724L362.884 337.257L355.293 385.437L345.28 431.836L335.289 478.62L324.344 525.294L311.884 568.31L297.971 599.103L284.175 612.508" stroke="#00FFE7" stroke-opacity="0.5" stroke-width="1.08501" stroke-linecap="round" stroke-linejoin="round"/>
<path d="M257.93 602.784L256.584 602.331L250.228 600.716L236.566 595.607" stroke="#00FFE7" stroke-opacity="0.5" stroke-width="1.08501" stroke-linecap="round" stroke-linejoin="round"/>
<path d="M516.7 108.369L536.895 106.878L538.055 106.797L543.258 109.484" stroke="#00FFE7" stroke-opacity="0.5" stroke-width="1.08501" stroke-linecap="round" stroke-linejoin="round"/>
<path d="M538.357 362.144L517.877 359.785L491.329 356.26L457.135 351.352L413.56 344.854L362.882 337.257L312.386 329.813L271.075 323.89L240.279 319.211L207.146 313.059L164.233 304.4L123.029 295.996L92.5612 289.688L60.7135 282.714L33.1493 276.273L13.1407 271.13L3.99446 268.053" stroke="#00FFE7" stroke-opacity="0.5" stroke-width="1.08501" stroke-linecap="round" stroke-linejoin="round"/>
<path d="M5.25566 196.689L3.77813 176.93L27.9158 144.588L28.9592 142.63L29.4839 142.094L30.4154 139.874L69.387 118.221L97.4054 106.41L106.012 102.019" stroke="#00FFE7" stroke-opacity="0.5" stroke-width="1.08501" stroke-linecap="round" stroke-linejoin="round"/>
<path d="M352.718 188.473L372.173 184.896L397.588 173.286" stroke="#00FFE7" stroke-opacity="0.5" stroke-width="1.08501" stroke-linecap="round" stroke-linejoin="round"/>
<path d="M193.621 572.276L178.244 561.722L160.554 553.24L142.367 543.389L120.86 527.319L102.933 516.141L97.8563 509.328L83.0357 489.443L67.5216 478.466L52.4121 448.813L50.5593 445.201L38.3491 435.93L33.6773 423.961L24.0041 399.203L18.4572 391.477L14.2548 376.533L8.6174 356.433L7.6056 352.877" stroke="#00FFE7" stroke-opacity="0.5" stroke-width="1.08501" stroke-linecap="round" stroke-linejoin="round"/>
<path d="M102.933 516.142L91.8159 503.185L86.0588 497.315L74.8222 485.883L67.5218 478.467L59.0645 467.124L56.1756 462.764L41.5436 440.741L38.3493 435.931" stroke="#00FFE7" stroke-opacity="0.5" stroke-width="1.08501" stroke-linecap="round" stroke-linejoin="round"/>
<path d="M316.851 31.674L326.478 45.4372L320.29 73.5646L331.911 94.5045L341.394 113.936L349.547 129.428L357.581 139.38L366.409 143.514L376.316 142.919L397.938 152.987L428.353 156.734L453.809 174.082L467.172 205.747L484.072 237.231L511.692 269.976L527.731 313.099L517.877 359.785L495.129 400.624L480.338 440.086L470.229 482.441L450.897 489.285L421.455 492.593L381.72 489.662L335.288 478.619L289.397 458.747L252.789 434.077L222.557 420.433L184.586 420.509L135.329 425.216L89.926 423.876L60.8109 415.524L38.4533 407.24L24.0033 399.204L15.1762 358.899L7.6048 352.878L5.31472 317.222L4.95781 311.85L13.1411 271.13L23.0371 230.648L43.1648 194.416L74.6976 167.701L92.2023 172.87L110.758 176.136L131.602 178.192L155.829 179.745L187.208 186.103L223.421 198.868L258.838 215.612L289.415 230.599L316.6 239.787L342.271 246.341L367.145 251.145L395.811 251.593L422.227 270.752L449.278 303.887L457.135 351.351L445.568 399.239L432.471 444.889L421.455 492.593L409.059 542.198L392.424 589.47L369.794 625.105L341.978 636.95" stroke="#00FFE7" stroke-opacity="0.5" stroke-width="1.08501" stroke-linecap="round" stroke-linejoin="round"/>
<path d="M306.43 19.7372L319.695 27.0872L324.655 32.4403" stroke="#00FFE7" stroke-opacity="0.5" stroke-width="1.08501" stroke-linecap="round" stroke-linejoin="round"/>
<path d="M211.301 582.042L205.895 570L205.962 539.794L210.743 498.567L217.06 457.183L222.557 420.434L228.325 385.361L234.318 351.733L240.279 319.211L247.171 287.956L253.094 254.941L258.838 215.613L266.685 177.283L275.994 148.052L285.451 119.072L295.495 86.6339L306.349 53.7079L316.851 31.6742" stroke="#00FFE7" stroke-opacity="0.5" stroke-width="1.08501" stroke-linecap="round" stroke-linejoin="round"/>
<path d="M249.176 599.132L236.565 595.607L232.712 592.021" stroke="#00FFE7" stroke-opacity="0.5" stroke-width="1.08501" stroke-linecap="round" stroke-linejoin="round"/>
<path d="M29.6693 142.23L39.5975 149.605L56.0271 159.071L74.6983 167.701L106.788 146.097L133.656 121.716L155.373 86.7598L180.564 47.6883L201.809 28.0128L214.038 16.6855L221.051 14.7321L221.715 14.6019L224.056 13.6966L234.418 10.2105L259.621 2.20942" stroke="#00FFE7" stroke-opacity="0.5" stroke-width="1.08501" stroke-linecap="round" stroke-linejoin="round"/>
<path d="M376.317 142.919L386.575 139.745L395.701 136.588L404.816 134.522L413.984 131.736L416.495 131.155L449.986 123.308L452.533 122.716L452.815 122.694L470.581 121.4L507.431 118.721L510.839 118.483L527.957 111.282L537.514 107.121L543.258 109.483L589.759 128.522" stroke="#00FFE7" stroke-opacity="0.5" stroke-width="1.08501" stroke-linecap="round" stroke-linejoin="round"/>
<path d="M246.896 598.156L236.566 595.608L232.941 592.112" stroke="#00FFE7" stroke-opacity="0.5" stroke-width="1.08501" stroke-linecap="round" stroke-linejoin="round"/>
<path d="M230.675 591.138L230.576 580.863L234.192 552.039L240.2 512.478L246.729 471.79" stroke="#00FFE7" stroke-opacity="0.5" stroke-width="1.08501" stroke-linecap="round" stroke-linejoin="round"/>
<path d="M245.248 597.426L236.565 595.608L233.246 592.251" stroke="#00FFE7" stroke-opacity="0.5" stroke-width="1.08501" stroke-linecap="round" stroke-linejoin="round"/>
<path d="M554.037 398.994L545.278 399.159L525.154 431.989L507.125 463.821L497.068 463.975L488.071 466.876L486.646 470.679L474.524 502.991L469.328 514.607L461.691 537.248L459.045 545.079L458.875 545.57L454.902 557.342L443.508 572.959L420.536 612.562L399.026 622.63L386.843 628.567L367.341 638.054" stroke="#00FFE7" stroke-opacity="0.5" stroke-width="1.08501" stroke-linecap="round" stroke-linejoin="round"/>
<path d="M533.497 432.118L525.153 431.989L511.895 430.854" stroke="#00FFE7" stroke-opacity="0.5" stroke-width="1.08501" stroke-linecap="round" stroke-linejoin="round"/>
<path d="M333.856 45.2295L337.894 52.1274L341.469 58.9984L344.582 65.618L348.908 78.7089L353.738 90.1492L356.642 96.3689L357.245 97.9292L363.495 114.313L367.531 118.972L370.586 122.145L371.351 123.16L374.24 126.288L386.575 139.746L419.304 139.876L437.814 129.89L452.533 122.717L465.187 115.332L527.957 111.283L584.431 128.106L589.759 128.522L623.138 165.489" stroke="#00FFE7" stroke-opacity="0.5" stroke-width="1.08501" stroke-linecap="round" stroke-linejoin="round"/>
<path d="M214.038 16.6851L221.715 14.6014L223.728 13.9878" stroke="#00FFE7" stroke-opacity="0.5" stroke-width="1.08501" stroke-linecap="round" stroke-linejoin="round"/>
<path d="M106.012 102.019L111.322 107.552L121.348 115.066L133.656 121.715L147.187 126.16" stroke="#00FFE7" stroke-opacity="0.5" stroke-width="1.08501" stroke-linecap="round" stroke-linejoin="round"/>
<path d="M243.953 596.876L236.566 595.607L233.75 592.457" stroke="#00FFE7" stroke-opacity="0.5" stroke-width="1.08501" stroke-linecap="round" stroke-linejoin="round"/>
<path d="M329.412 38.5747L326.479 45.4369L335 60.0887L342.346 74.507L348.63 87.721L354.108 98.9241L354.269 100.843L357.581 139.38L361.67 169.544L372.173 184.896L382.747 202.187L385.725 229.681L395.811 251.593" stroke="#00FFE7" stroke-opacity="0.5" stroke-width="1.08501" stroke-linecap="round" stroke-linejoin="round"/>
<path d="M344.582 65.6179L347.219 71.7749L348.366 75.2494L349.368 77.8321L352.091 84.4029L356.666 94.6893L358.694 99.2155L360.056 102.241L361.355 104.405L362.56 106.102L363.489 107.891L370.934 122.343L372.642 123.326L374.462 124.364L376.044 125.274L376.392 125.472L377.656 126.206L378.404 126.507L395.701 136.588L402.886 134.335L409.107 131.015L412.968 128.614L413.618 128.359L422.983 125.641L426.28 124.621L455.68 115.925L472.409 111.018L516.701 108.369L537.514 107.122L538.055 106.797L589.759 128.522L607.118 150.017" stroke="#00FFE7" stroke-opacity="0.5" stroke-width="1.08501" stroke-linecap="round" stroke-linejoin="round"/>
<path d="M513.301 463.218L507.125 463.82L487.303 494.046L480.797 496.797L468.526 523.738L468.359 524.109L464.368 532.094L460.348 542.295" stroke="#00FFE7" stroke-opacity="0.5" stroke-width="1.08501" stroke-linecap="round" stroke-linejoin="round"/>
<path d="M347.219 71.7751L349.398 77.3513" stroke="#00FFE7" stroke-opacity="0.5" stroke-width="1.08501" stroke-linecap="round" stroke-linejoin="round"/>
<path d="M3.77814 176.929L8.20949 179.97L22.2788 186.259L43.1654 194.415L67.8319 203.002L95.0418 211.535L122.798 218.893L149.138 223.338L182.091 231.369L218.958 243.446L253.095 254.94L283.715 261.169L316.025 262.651L350.382 265.365L385.453 268.478L406.194 298.495L413.561 344.853L404.747 394.318L392.821 441.451L381.72 489.661L369.396 538.844L353.997 584.555L334.906 618.047" stroke="#00FFE7" stroke-opacity="0.5" stroke-width="1.08501" stroke-linecap="round" stroke-linejoin="round"/>
<path d="M29.2988 141.959L30.4157 139.874" stroke="#00FFE7" stroke-opacity="0.5" stroke-width="1.08501" stroke-linecap="round" stroke-linejoin="round"/>
<path d="M0.542544 223.279L5.11235 224.99L23.0376 230.648L49.6555 238.577L80.5166 247.277L112.611 255.665L140.993 261.48L176.726 270.207L214.858 280.764L247.172 287.957L277.764 290.05L315.722 290.771L360.4 293.724L406.194 298.496L449.279 303.887L489.265 308.926L527.731 313.1L563.308 316.403L588.514 319.041L606.396 320.648L614.505 321.24" stroke="#00FFE7" stroke-opacity="0.5" stroke-width="1.08501" stroke-linecap="round" stroke-linejoin="round"/>
<path d="M240.929 595.565L236.566 595.607" stroke="#00FFE7" stroke-opacity="0.5" stroke-width="1.08501" stroke-linecap="round" stroke-linejoin="round"/>
<path d="M490.761 491.664L487.303 494.046L483.011 500.834L469.065 522.909" stroke="#00FFE7" stroke-opacity="0.5" stroke-width="1.08501" stroke-linecap="round" stroke-linejoin="round"/>
<path d="M580.336 363.112L576.361 364.139L575.935 364.605L574.067 366.719L545.278 399.158L530.683 398.125L517.88 397.987" stroke="#00FFE7" stroke-opacity="0.5" stroke-width="1.08501" stroke-linecap="round" stroke-linejoin="round"/>
<path d="M264.316 607.095L260.778 605.645L260.261 605.418L249.824 601.046L236.566 595.607" stroke="#00FFE7" stroke-opacity="0.5" stroke-width="1.08501" stroke-linecap="round" stroke-linejoin="round"/>
<path d="M239.926 595.136L236.566 595.608" stroke="#00FFE7" stroke-opacity="0.5" stroke-width="1.08501" stroke-linecap="round" stroke-linejoin="round"/>
<path d="M238.844 594.658L236.566 595.608" stroke="#00FFE7" stroke-opacity="0.5" stroke-width="1.08501" stroke-linecap="round" stroke-linejoin="round"/>
<path d="M137.316 77.3649L139.201 78.4305L145.656 82.2317L155.372 86.7593L167.213 90.1188L180.764 91.2694L196.419 90.6588L215.186 90.9395L237.173 94.6473L261.285 103.54L285.451 119.073L306.933 140.311L324.084 162.934L321.806 187.958L318.961 214.587L316.6 239.788L316.024 262.653L315.721 290.771L312.387 329.813L305.284 373.372L297.42 416.003L289.397 458.747L281.005 500.699L272.404 539.891L263.924 573.653L256.469 595.526L251.118 599.965" stroke="#00FFE7" stroke-opacity="0.5" stroke-width="1.08501" stroke-linecap="round" stroke-linejoin="round"/>
<path d="M236.565 595.607L236.514 593.654" stroke="#00FFE7" stroke-opacity="0.5" stroke-width="1.08501" stroke-linecap="round" stroke-linejoin="round"/>
<path d="M237.695 594.168L236.566 595.608" stroke="#00FFE7" stroke-opacity="0.5" stroke-width="1.08501" stroke-linecap="round" stroke-linejoin="round"/>
<path d="M272.557 608.855L271.716 608.904L269.851 608.744L267.369 608.133L264.316 607.095L260.781 605.628L260.761 605.642L250.388 600.586L236.566 595.607" stroke="#00FFE7" stroke-opacity="0.5" stroke-width="1.08501" stroke-linecap="round" stroke-linejoin="round"/>
<path d="M272.397 608.776L271.716 608.904L262.026 605.248L250.428 600.559L236.566 595.607" stroke="#00FFE7" stroke-opacity="0.5" stroke-width="1.08501" stroke-linecap="round" stroke-linejoin="round"/>
<path d="M593.624 344.708L576.361 364.139L565.065 364.013L564.73 364.355L530.683 398.124L511.895 430.852L500.409 431.648L492.546 435.749L480.339 440.085L461.21 443.683L432.472 444.888L392.822 441.451L345.28 431.835L297.421 416.002L258.757 397.32L228.326 385.361L190.068 383.235L138.459 384.003L90.1615 380.385L58.7998 372.694L32.9169 365.549L15.1771 358.899" stroke="#00FFE7" stroke-opacity="0.5" stroke-width="1.08501" stroke-linecap="round" stroke-linejoin="round"/>
<path d="M27.9158 144.588L29.6692 142.23L69.093 120.878L97.4055 106.41" stroke="#00FFE7" stroke-opacity="0.5" stroke-width="1.08501" stroke-linecap="round" stroke-linejoin="round"/>
<path d="M352.091 84.4033L353.089 87.0194L353.739 90.1495L359.014 107.775L363.495 114.314L363.722 114.821L364.035 115.534L368.736 125.997L376.317 142.92" stroke="#00FFE7" stroke-opacity="0.5" stroke-width="1.08501" stroke-linecap="round" stroke-linejoin="round"/>
<path d="M356.666 94.6883L361.595 104.219L363.608 107.702L365.961 111.328L373.218 121.358L376.392 125.471" stroke="#00FFE7" stroke-opacity="0.5" stroke-width="1.08501" stroke-linecap="round" stroke-linejoin="round"/>
<path d="M377.656 126.206L378.403 126.507L378.71 126.541L378.808 126.575L402.886 134.334L404.815 134.522L420.353 132.659L437.814 129.89L440.549 129.729L489.131 126.851L537.198 140.948L569.544 175.101L590.912 218.832L602.667 267.564L588.513 319.041L551.878 363.272L538.358 362.144L532.856 369.109L508.802 399.521L495.13 400.624L475.039 400.882L445.569 399.24L404.747 394.319L355.293 385.437L305.285 373.372L264.771 360.798L234.318 351.733L198.124 346.851L148.631 342.197L101.379 335.685L69.2533 328.714L39.7873 322.229L17.3806 316.489L4.95829 311.851L3.79651 308.668L3.99529 268.053L4.67412 241.509L5.11229 224.99L22.2787 186.26L56.0269 159.07L91.6313 138.339L121.349 115.065L145.656 82.2316L170.944 50.0674L173.445 46.8809L186.077 37.2711L188.451 35.4516L204.477 23.2227L208.982 19.7858L214.038 16.685L219.723 14.8883L221.907 14.3906L231.683 13.5476L235.887 11.9861L249.075 7.08715L266.69 0.542813L275.284 0.835653L285.091 4.00739" stroke="#00FFE7" stroke-opacity="0.5" stroke-width="1.08501" stroke-linecap="round" stroke-linejoin="round"/>
<path d="M295.66 10.3629L309.323 19.2559L309.84 19.5866L314.701 22.7531L319.695 27.0877" stroke="#00FFE7" stroke-opacity="0.5" stroke-width="1.08501" stroke-linecap="round" stroke-linejoin="round"/>
<path d="M363.609 107.702L364.642 109.491L372.643 123.326" stroke="#00FFE7" stroke-opacity="0.5" stroke-width="1.08501" stroke-linecap="round" stroke-linejoin="round"/>
<path d="M365.961 111.329L368.591 115.368L374.461 124.363" stroke="#00FFE7" stroke-opacity="0.5" stroke-width="1.08501" stroke-linecap="round" stroke-linejoin="round"/>
<path d="M373.217 121.358L376.043 125.274" stroke="#00FFE7" stroke-opacity="0.5" stroke-width="1.08501" stroke-linecap="round" stroke-linejoin="round"/>
<path d="M4.67422 241.509L2.34151 231.203L0.542582 223.279L5.25572 196.689L8.20954 179.972L39.5974 149.605L77.97 128.926L111.323 107.552L139.202 78.4308L151.766 65.6332" stroke="#00FFE7" stroke-opacity="0.5" stroke-width="1.08501" stroke-linecap="round" stroke-linejoin="round"/>
<path d="M348.44 79.1143L354.109 98.9237L359.014 107.774L359.386 109.572L359.514 110.253L359.736 111.298L366.41 143.514L377.951 164.318" stroke="#00FFE7" stroke-opacity="0.5" stroke-width="1.08501" stroke-linecap="round" stroke-linejoin="round"/>
<path d="M5.31539 317.223L4.63626 313.445L3.79669 308.669" stroke="#00FFE7" stroke-opacity="0.5" stroke-width="1.08501" stroke-linecap="round" stroke-linejoin="round"/>
<path d="M33.6777 423.962L25.725 406.976L21.3891 397.737L18.4575 391.478" stroke="#00FFE7" stroke-opacity="0.5" stroke-width="1.08501" stroke-linecap="round" stroke-linejoin="round"/>
<path d="M283.696 612.983L272.648 608.837" stroke="#00FFE7" stroke-opacity="0.5" stroke-width="1.08501" stroke-linecap="round" stroke-linejoin="round"/>
<path d="M169.596 47.4784L170.991 46.6211L176.21 43.3747L186.078 37.2709" stroke="#00FFE7" stroke-opacity="0.5" stroke-width="1.08501" stroke-linecap="round" stroke-linejoin="round"/>
<path d="M242.87 596.398L241.881 595.988L236.565 595.608L234.477 592.772" stroke="#00FFE7" stroke-opacity="0.5" stroke-width="1.08501" stroke-linecap="round" stroke-linejoin="round"/>
<path d="M241.881 595.988L240.929 595.566L239.925 595.136L238.843 594.657L237.694 594.167L236.514 593.655L235.412 593.191" stroke="#00FFE7" stroke-opacity="0.5" stroke-width="1.08501" stroke-linecap="round" stroke-linejoin="round"/>
<path d="M361.099 104.587L367.531 118.972L370.241 121.93" stroke="#00FFE7" stroke-opacity="0.5" stroke-width="1.08501" stroke-linecap="round" stroke-linejoin="round"/>
</svg>
